<?xml version="1.0" encoding="UTF-8"?> <svg xmlns="http://www.w3.org/2000/svg" xmlns:xlink="http://www.w3.org/1999/xlink" width="527px" height="179px" viewBox="0 0 527 179" version="1.1"><title>ericsson</title><g id="ericsson" stroke="none" stroke-width="1" fill="none" fill-rule="evenodd"><g id="ericsson-ar21" transform="translate(108.500000, 43.000000)" fill="#FFFFFF" fill-rule="nonzero"><path d="M132.827783,44.0907451 L137.390955,44.0907451 C139.445338,44.0907451 141.299516,42.8991113 141.277273,40.6429499 C141.277273,38.641004 139.624877,37.2110422 137.51171,37.2428203 L132.824618,37.2428203 L132.827783,44.0907451 Z M124.867678,31.2052045 L139.861612,31.2052045 C143.933821,31.2052045 149.606003,32.984713 149.606003,39.3400943 C149.606003,43.4075423 147.762941,45.6954818 144.254768,46.7441188 C144.419998,46.7441188 146.256717,47.5385403 147.016182,49.8423673 C147.047957,49.8423673 151.306068,61.7746021 151.353733,61.8063771 L142.513395,61.8063771 L139.367478,52.6069597 C138.884467,51.1928854 137.83424,50.2554671 136.343909,50.2554671 L133.012091,50.2554671 L133.012091,61.8063771 L124.867678,61.8063771 L124.867678,31.2052045 Z M262.557061,30.4584486 C271.200381,30.4584486 277.809981,35.5268649 277.809981,46.569347 C277.809981,57.1192825 271.168606,62.5531361 262.557061,62.5531361 C253.977293,62.5531361 247.38358,57.2463887 247.38358,46.569347 C247.38358,35.5268649 253.929627,30.4584486 262.557061,30.4584486 Z M255.899795,46.569347 C255.899795,51.2246635 257.901741,56.5155203 262.557061,56.4996685 C267.228268,56.4996685 269.182548,51.2246635 269.230214,46.569347 C269.230214,42.3430147 267.228268,36.6390581 262.557061,36.6390581 C257.901741,36.6390581 255.899795,41.8981399 255.899795,46.569347 L255.899795,46.569347 Z M300.069708,61.8063771 L289.456207,41.6915869 L289.456207,61.8063771 L281.75032,61.8063771 L281.75032,31.2052045 L292.300271,31.2052045 L302.357663,50.9386699 L302.357663,31.2052045 L310,31.2052045 L310,61.8063771 L300.069708,61.8063771 Z M243.443245,31.7136355 L242.887148,38.0849074 C238.692594,35.7810804 230.732476,35.7175273 230.732476,39.3400943 C230.732476,44.7103948 244.920869,40.8336123 244.920869,52.3368567 C244.920869,63.6335512 231.399791,63.7606574 222.645249,61.1390618 L223.269666,54.4023557 C228.762308,56.9603982 236.531764,57.5164948 236.531764,53.0836126 C236.531764,48.2058556 222.279815,50.9545605 222.279815,40.0233002 C222.279815,31.0463202 233.38585,28.647162 243.443245,31.7136355 L243.443245,31.7136355 Z M218.333121,31.7136355 L217.77226,38.0849074 C213.577705,35.7810804 205.617587,35.7175273 205.617587,39.3400943 C205.617587,44.7103948 219.810748,40.8336123 219.810748,52.3368567 C219.810748,63.6335512 206.30238,63.7606574 197.538305,61.1390618 L198.157955,54.4023557 C203.64901,56.9603982 211.42482,57.5164948 211.42482,53.0836126 C211.42482,48.2058556 197.172871,50.9545605 197.172871,40.0233002 C197.172871,31.0463202 208.275726,28.647162 218.333121,31.7136355 Z M193.839472,32.1902884 L193.280198,38.7363352 C186.559383,34.8436621 176.255714,36.0829615 176.072997,46.2833534 C175.885509,56.4837453 186.683311,57.9613696 193.529649,54.4976869 L193.958636,61.1867274 C181.872285,64.9522943 167.431267,61.1867274 167.494611,46.2833534 C167.55837,31.7454136 182.1122,27.7256312 193.837885,32.1902884 L193.839472,32.1902884 Z M163.48616,61.8063771 L155.166963,61.8063771 L155.166963,31.2052045 L163.48616,31.2052045 L163.48616,61.8063771 Z M118.204054,49.683483 L103.697895,49.683483 L103.697895,55.3874396 L119.069974,55.3874396 L119.069974,61.7904896 L95.4422482,61.7904896 L95.4422482,31.2052045 L118.830056,31.2052045 L118.830056,37.5605889 L103.699483,37.5605889 L103.699483,43.0897737 L118.205644,43.0897737 L118.204054,49.683483 Z" id="Shape"></path><path d="M12.415314,92.3764598 C7.6157917,94.1009929 2.3242839,91.627568 0.5691197,86.8391685 C-1.1860569,82.0507628 1.2535005,76.7435566 6.0305819,74.9578202 L57.3141268,56.1565806 C62.1175768,54.3941469 67.4469604,56.8624909 69.2117315,61.67295 C70.9778821,66.4827829 68.5071325,71.8132081 63.6953497,73.5740515 L12.415314,92.3764598 Z M12.415314,64.6193016 C7.6157917,66.3438316 2.3242839,63.8704067 0.5691197,59.0820103 C-1.1860569,54.2936015 1.2535005,48.9863984 6.0305819,47.200662 L57.3141268,28.4005973 C62.1175768,26.6358262 67.4469604,29.1065045 69.2117315,33.9169605 C70.9769583,38.72582 68.5061994,44.0547169 63.6953497,45.8145559 L12.415314,64.6193016 Z M12.415314,36.8621434 C7.6334865,38.5252345 2.4013964,36.0469922 0.6588058,31.2935669 C-1.08377054,26.5401354 1.3068639,21.2674446 6.0305819,19.4458443 L57.3141268,0.6446047 C62.1175768,-1.1201664 67.4469604,1.3505119 69.2117315,6.1609741 C70.9769583,10.9698398 68.5061994,16.2987336 63.6953497,18.0585726 L12.415314,36.8621434 Z" id="Shape"></path></g></g></svg> 