<?xml version="1.0" encoding="UTF-8"?> <svg xmlns="http://www.w3.org/2000/svg" xmlns:xlink="http://www.w3.org/1999/xlink" width="527px" height="179px" viewBox="0 0 527 179" version="1.1"><title>facebook</title><g id="facebook" stroke="none" stroke-width="1" fill="none" fill-rule="evenodd"><g id="facebook-ar21" transform="translate(82.450000, 54.000000)" fill="#FFFFFF" fill-rule="nonzero"><path d="M28.968,11.5233 C24.7009,11.5233 23.49035,13.41545 23.49035,17.58315 L23.49035,24.47015 L34.83615,24.47015 L33.72145,35.61715 L23.49035,35.61715 L23.49035,69.41315 L9.91515,69.41315 L9.91515,35.61715 L0.71,35.61715 L0.71,24.47015 L9.869,24.47015 L9.869,17.7784 C9.869,6.532 14.3775,0.6177 27.0297,0.6177 C29.74545,0.6177 32.9937,0.81295 34.932,1.10405 L34.932,11.57655 M35.713,48.32615 C35.713,60.8825 41.677,70.28645 54.0878,70.28645 C60.8754,70.28645 65.1425,66.89265 67.0311,62.58295 L67.0311,69.37055 L80.0738,69.37055 L80.0738,24.46305 L67.0311,24.46305 L67.0311,31.35005 C65.0431,27.0368 60.9251,23.49745 54.0878,23.49745 C41.6628,23.49745 35.713,32.9511 35.713,45.45775 M49.3379,45.2625 C49.3379,38.57075 51.8087,34.1155 58.1135,34.1155 C63.687,34.1155 66.50215,38.18735 66.50215,44.588 L66.50215,49.0965 C66.50215,55.49715 63.69055,59.569 58.1135,59.569 C51.81225,59.569 49.3379,55.15635 49.3379,48.422 L49.3379,45.2625 Z M108.3886,23.4939 C92.4775,23.501 85.2,32.0778 85.2,45.84825 L85.2,47.9321 C85.2,61.699 92.4704,70.2829 108.4241,70.2829 C113.7491,70.2829 118.70135,69.1682 121.4668,67.27605 L118.45995,57.62715 C115.62363,58.9682701 112.530494,59.6791828 109.39325,59.711 C102.02345,59.711 98.8249,55.4439 98.8249,48.21965 L98.8249,45.6033 C98.8249,38.3329 102.0199,34.11195 109.39325,34.11195 C112.94325,34.11195 116.3761,35.1308 118.45995,36.1958 L121.4668,26.5469 C118.7049,24.6086 113.71005,23.4939 108.4241,23.4939 M123.20985,48.6066 C123.20985,61.79485 129.6105,70.3752 146.7712,70.3752 C153.2677,70.3752 160.6375,68.9694 164.223,67.0737 L161.7522,57.7159 C157.7762,59.4128 152.3944,60.43165 147.3037,60.43165 C139.7422,60.43165 137.02645,57.7159 136.73535,51.55665 L165.3377,51.55665 L165.3377,44.38565 C165.3377,31.96065 159.2317,23.44065 145.266,23.44065 C130.427,23.44065 123.2063,31.8293 123.2063,44.57735 L123.2063,48.635 M136.7815,42.7704 C136.7815,36.71055 139.16,32.8801 145.3015,32.8801 C151.2655,32.8801 153.2038,36.76025 153.2038,41.6557 L153.2038,42.7704 L136.7815,42.7704 Z M215.75835,45.48615 C215.75835,32.9298 209.6985,23.52585 197.2877,23.52585 C190.98645,23.52585 186.6235,26.72085 184.6355,30.69685 L184.6355,0.6887 L171.0603,1.8957 L171.0603,69.3457 L183.9113,69.3457 L183.9113,62.5581 C185.80345,66.87135 190.50365,70.31485 197.2948,70.31485 C209.7198,70.31485 215.76545,60.8612 215.76545,48.35455 M202.19025,48.5498 C202.19025,54.85105 199.71945,59.6045 193.22295,59.6045 C187.64945,59.6045 184.6426,55.6285 184.6426,49.22785 L184.6426,44.5241 C184.6426,38.12345 187.64945,34.14745 193.22295,34.14745 C199.71945,34.14745 202.19025,38.8512 202.19025,45.20215 L202.19025,48.5498 Z M220.32365,48.0173 C220.32365,60.9606 227.69345,70.2687 242.67445,70.2687 C257.65545,70.2687 265.02525,60.9109 265.02525,48.0173 L265.02525,45.7382 C265.02525,32.7949 257.65545,23.4868 242.67445,23.4868 C227.69345,23.4868 220.32365,32.8446 220.32365,45.7382 L220.32365,48.0173 Z M251.45005,48.9403 C251.45005,54.9043 248.97925,59.6045 242.67445,59.6045 C236.36965,59.6045 233.89885,54.90075 233.89885,48.9403 L233.89885,44.7726 C233.89885,38.8086 236.36965,34.1084 242.67445,34.1084 C248.97925,34.1084 251.45005,38.81215 251.45005,44.7726 L251.45005,48.9403 Z M269.53375,48.0173 C269.53375,60.9606 276.90355,70.2687 291.88455,70.2687 C306.86555,70.2687 314.23535,60.9109 314.23535,48.0173 L314.23535,45.7382 C314.23535,32.7949 306.86555,23.4868 291.88455,23.4868 C276.90355,23.4868 269.53375,32.8446 269.53375,45.7382 L269.53375,48.0173 Z M300.70275,48.9403 C300.70275,54.9043 298.23195,59.6045 291.92715,59.6045 C285.62235,59.6045 283.148,54.9895 283.148,48.9545 L283.148,44.7868 C283.148,38.8228 285.6188,34.1226 291.9236,34.1226 C298.2284,34.1226 300.6992,38.82635 300.6992,44.7868 L300.70275,48.9403 Z M332.94385,0.6532 L319.36865,1.8602 L319.36865,69.225 L332.94385,69.225 L332.94385,47.2647 L346.906,69.225 L361.3545,69.225 L346.7143,46.505 L360.7723,24.353 L346.3238,24.353 L332.9403,45.7808" id="Shape"></path></g></g></svg> 