<?xml version="1.0" encoding="UTF-8"?> <svg xmlns="http://www.w3.org/2000/svg" viewBox="0 0 50 50"><path d="M14.737 19.62a13.672 13.672 0 0 1 4.894-4.894l-1.52-1.519a1.856 1.856 0 0 0-2.53 0l-2.363 2.363a1.855 1.855 0 0 0 0 2.531l1.518 1.52zm-1.351 5.57a10.827 10.827 0 0 1 .507-3.376H11.7a1.688 1.688 0 0 0-1.689 1.686v3.375a1.519 1.519 0 0 0 1.328 1.688 1.548 1.548 0 0 0 .36 0h2.194a10.792 10.792 0 0 1-.507-3.373zm22.278-5.57l1.52-1.519a1.857 1.857 0 0 0 0-2.531l-2.364-2.363a1.857 1.857 0 0 0-2.531 0l-1.52 1.519a13.675 13.675 0 0 1 4.895 4.894zM25.2 13.376a10.82 10.82 0 0 1 3.375.506v-2.194A1.687 1.687 0 0 0 26.888 10h-3.377a1.687 1.687 0 0 0-1.687 1.688v2.194a10.82 10.82 0 0 1 3.375-.506zM25.2 37a10.8 10.8 0 0 1-3.376-.505v2.194a1.519 1.519 0 0 0 1.688 1.687h3.376a1.519 1.519 0 0 0 1.687-1.688V36.5a10.792 10.792 0 0 1-3.375.5zm13.5-15.186h-2.192a11.474 11.474 0 0 1 0 6.751H38.7a1.519 1.519 0 0 0 1.688-1.329 1.54 1.54 0 0 0 0-.359V23.5a1.688 1.688 0 0 0-1.688-1.685zm-3.036 8.945a13.683 13.683 0 0 1-4.894 4.9l1.519 1.519a1.857 1.857 0 0 0 2.531 0l2.363-2.363a1.856 1.856 0 0 0 0-2.532zm-20.927 0l-1.52 1.52a1.856 1.856 0 0 0 0 2.53l2.363 2.364a1.856 1.856 0 0 0 2.532 0l1.519-1.52a13.672 13.672 0 0 1-4.894-4.894zM25.2 28.565a3.375 3.375 0 1 0-3.375-3.375 3.375 3.375 0 0 0 3.375 3.375z" fill="#ef9f44"></path><path d="M13.387 25.19A11.814 11.814 0 1 1 25.2 37a11.814 11.814 0 0 1-11.813-11.81zm8.439 0a3.375 3.375 0 1 0 3.374-3.375 3.375 3.375 0 0 0-3.374 3.375z" fill="#273739" fill-rule="evenodd"></path></svg> 