<?xml version="1.0" encoding="UTF-8"?> <svg xmlns="http://www.w3.org/2000/svg" width="208" height="68" viewBox="0 0 208 68" fill="none"><path d="M82.8963 30.8108V45.6989H79.4229V39.373H70.517V45.6989H67.041V30.8108H70.517V37.122H79.4229V30.8108H82.8963ZM97.9686 43.4602V45.6989H85.0344V30.8108H97.9686V33.0471H88.5055V37.3478H97.1708V39.5768H88.5055V43.4602H97.9686ZM110.753 38.3371L117.064 45.7014H113.078L108.492 40.1634L103.887 45.6989H99.9005L106.204 38.369L99.4709 30.8108H103.453L108.468 36.5402L113.507 30.8108H117.491L110.753 38.3371ZM122.627 30.8108V45.6989H119.146V30.8108H122.627ZM134.984 45.9297C128.732 45.9297 125.192 42.5765 125.192 38.2635C125.192 33.8915 128.845 30.5751 134.984 30.5751C141.28 30.5751 144.803 33.8989 144.803 38.2635C144.803 42.5814 141.231 45.9297 134.984 45.9297V45.9297ZM134.984 43.6664C138.968 43.6664 141.325 41.5528 141.325 38.2659C141.325 34.925 139.012 32.8433 134.984 32.8433C131.074 32.8433 128.67 34.9372 128.67 38.2659C128.67 41.5946 131.002 43.6664 134.984 43.6664V43.6664ZM162.674 30.8108V45.6989H159.203V35.6737L150.933 45.6989H146.914V30.8108H150.39V40.8311L158.65 30.8108H162.674ZM166.854 45.7137H167.269V44.0223H166.987V45.3185L166.513 44.0125H166.268L165.799 45.3185V44.0125H165.511V45.7137H165.929L166.398 44.3881L166.854 45.7137ZM163.999 45.7137H165.369V45.4682H164.832V44.0322H164.534V45.4486H163.999" fill="white"></path><path d="M60.8538 31.4759C59.4655 30.0884 57.5831 29.309 55.6203 29.309C53.6575 29.309 51.775 30.0884 50.3867 31.4759L55.6105 36.7192L60.8538 31.4759Z" fill="white"></path><path d="M55.6094 47.1865L50.3857 41.953C48.9982 40.5647 48.2188 38.6822 48.2188 36.7194C48.2188 34.7566 48.9982 32.8742 50.3857 31.4858L55.6094 36.7194C56.297 37.4065 56.8425 38.2224 57.2146 39.1204C57.5868 40.0184 57.7783 40.9809 57.7783 41.953C57.7783 42.925 57.5868 43.8876 57.2146 44.7856C56.8425 45.6836 56.297 46.4994 55.6094 47.1865V47.1865Z" fill="white"></path><path d="M37.9355 45.0182C39.3239 46.4056 41.2063 47.1851 43.1691 47.1851C45.1319 47.1851 47.0144 46.4056 48.4027 45.0182L43.1691 39.7846L37.9355 45.0182Z" fill="white"></path><path d="M48.4034 45.019L45.7916 42.4023L43.1699 39.7855C42.4826 39.0982 41.9374 38.2823 41.5654 37.3843C41.1934 36.4863 41.002 35.5239 41.002 34.5519C41.002 33.58 41.1934 32.6175 41.5654 31.7195C41.9374 30.8215 42.4826 30.0056 43.1699 29.3184L45.7916 31.9351L48.4034 34.5519C49.0907 35.2392 49.6359 36.0551 50.0079 36.9531C50.3799 37.8511 50.5713 38.8135 50.5713 39.7855C50.5713 40.7575 50.3799 41.7199 50.0079 42.6179C49.6359 43.5159 49.0907 44.3318 48.4034 45.019V45.019Z" fill="white"></path></svg> 