<?xml version="1.0" encoding="UTF-8"?> <svg xmlns="http://www.w3.org/2000/svg" xmlns:xlink="http://www.w3.org/1999/xlink" width="527px" height="179px" viewBox="0 0 527 179" version="1.1"><title>honeywell</title><g id="honeywell" stroke="none" stroke-width="1" fill="none" fill-rule="evenodd"><g id="Honeywell_logo" transform="translate(59.000000, 53.000000)" fill="#FFFFFF"><polygon id="polygon9" points="370.58529 55.2926217 386.122182 55.2926217 386.122182 0 370.58529 0 370.58529 55.2926217"></polygon><polygon id="polygon11" points="408.968268 0 408.968268 55.2926217 393.433729 55.2926217 393.433729 0 408.968268 0"></polygon><polygon id="polygon13" points="33.1273204 21.475683 20.5618865 21.475683 20.5618865 0 0 0 0 55.2926217 20.5618865 55.2926217 20.5618865 27.8757909 33.1273204 27.8757909 33.1273204 55.2926217 53.6912689 55.2926217 53.6912689 0 33.1273204 0 33.1273204 21.475683"></polygon><path d="M129.658896,20.5618865 L128.401323,16.9072911 L111.494034,16.9072911 L111.494034,55.2926217 L128.401323,55.2926217 L128.401323,32.2155866 L128.401323,32.2155866 C128.401323,27.1882346 131.601377,24.4474351 134.342473,24.4474351 C136.626667,24.4474351 139.59606,24.9040387 139.59606,29.9313906 L139.59606,29.9313906 L139.59606,55.2926217 L156.503355,55.2926217 L156.503355,30.388583 L156.503355,30.388583 C156.503355,16.4506876 140.855696,10.9684998 129.658896,20.5618865 L129.658896,20.5618865 L129.658896,20.5618865 L129.658896,20.5618865 Z" id="path15"></path><path d="M303.300201,39.1836501 L295.418343,16.9072911 L283.88012,16.9072911 L275.996488,40.0974466 L267.771143,16.9072911 L251.664532,16.9072911 L251.549053,16.9072911 L245.153662,16.9072911 L237.041437,36.4404941 L225.618102,16.9072911 L206.31143,16.9072911 L229.044685,55.7492252 L226.075293,63.0584136 L226.075293,63.0584136 C225.046017,65.3449666 222.584487,65.4580864 222.102548,63.2870121 C222.102548,59.361401 218.919284,56.1804947 214.993676,56.1804947 C211.06747,56.1804947 207.884797,59.361401 207.884797,63.2870121 C207.912489,67.4005682 212.024277,72.7696337 220.134142,72.4261536 C228.246367,72.0844352 231.672366,65.3449666 232.814761,62.4886938 L232.814761,62.4886938 L251.602669,17.0569393 L265.145231,55.2926217 L277.482363,55.2926217 L285.021918,33.2425023 L292.790662,55.2926217 L304.442005,55.2926217 L317.579224,16.9072911 L310.839756,16.9072911 L303.300201,39.1836501 L303.300201,39.1836501 L303.300201,39.1836501 Z" id="path17"></path><path d="M82.8199238,14.9559739 C69.8833102,14.9559739 59.3976343,24.5752841 59.3976343,36.4404941 C59.3976343,48.3098284 69.8833102,57.9291385 82.8199238,57.9291385 C95.7588842,57.9291385 106.246921,48.3098284 106.246921,36.4404941 C106.246921,24.5752841 95.7588842,14.9559739 82.8199238,14.9559739 L82.8199238,14.9559739 L82.8199238,14.9559739 L82.8199238,14.9559739 Z M88.6479482,46.4928415 C88.6479482,49.7120432 86.0391212,52.3208695 82.8199238,52.3208695 C79.6051365,52.3208695 76.9963096,49.7120432 76.9963096,46.4928415 L76.9963096,46.4928415 L76.9963096,26.3899151 L76.9963096,26.3899151 C76.9963096,23.1730693 79.6051365,20.5666001 82.8199238,20.5666001 C86.0391212,20.5666001 88.6479482,23.1730693 88.6479482,26.3899151 L88.6479482,26.3899151 L88.6479482,46.4928415 L88.6479482,46.4928415 L88.6479482,46.4928415 Z" id="path19"></path><path d="M208.188217,39.5253661 C208.311943,38.6262994 208.375574,37.3713763 208.375574,36.4404941 C208.375574,24.5752841 197.887833,14.9559739 184.951225,14.9559739 C172.012259,14.9559739 161.524222,24.5752841 161.524222,36.4404941 C161.524222,48.3098284 172.012259,57.9291385 184.951225,57.9291385 C193.840266,57.9291385 201.572475,53.3860813 205.542866,46.6937465 L205.542866,46.6937465 L200.368222,44.7789578 L200.368222,44.7789578 C197.240926,49.5582708 191.506873,52.7586197 184.951225,52.7586197 C181.732022,52.7586197 179.123195,49.7120432 179.123195,46.4928415 L179.123195,46.4928415 L179.123195,39.5271338 L208.188217,39.5253661 L208.188217,39.5253661 L208.188217,39.5253661 Z M179.123195,26.3899151 C179.123195,23.1730693 181.732022,20.5666001 184.951225,20.5666001 C188.16807,20.5666001 190.776897,23.1730693 190.776897,26.3899151 L190.776897,26.3899151 L190.776897,34.0431784 L179.123195,34.0431784 L179.123195,26.3899151 L179.123195,26.3899151 L179.123195,26.3899151 Z" id="path21"></path><path d="M364.691276,39.5253661 C364.817361,38.6262994 364.880986,37.3713763 364.880986,36.4404941 C364.880986,24.5752841 354.393251,14.9559739 341.45458,14.9559739 C328.517677,14.9559739 318.029936,24.5752841 318.029936,36.4404941 C318.029936,48.3098284 328.517677,57.9291385 341.45458,57.9291385 C350.345678,57.9291385 358.077893,53.3860813 362.048278,46.6937465 L362.048278,46.6937465 L356.873634,44.7789578 L356.873634,44.7789578 C353.746344,49.5582708 348.01258,52.7586197 341.45458,52.7586197 C338.237144,52.7586197 335.628909,49.7120432 335.628909,46.4928415 L335.628909,46.4928415 L335.628909,39.5271338 L364.691276,39.5253661 L364.691276,39.5253661 L364.691276,39.5253661 Z M335.628909,26.3899151 C335.628909,23.1730693 338.237144,20.5666001 341.45458,20.5666001 C344.673777,20.5666001 347.282604,23.1730693 347.282604,26.3899151 L347.282604,26.3899151 L347.282604,34.0431784 L335.628909,34.0431784 L335.628909,26.3899151 L335.628909,26.3899151 L335.628909,26.3899151 Z" id="path23"></path></g></g></svg> 