<?xml version="1.0" encoding="UTF-8"?> <svg xmlns="http://www.w3.org/2000/svg" xmlns:xlink="http://www.w3.org/1999/xlink" width="527px" height="179px" viewBox="0 0 527 179" version="1.1"><title>kelloggs</title><g id="kelloggs" stroke="none" stroke-width="1" fill="none" fill-rule="evenodd"><g id="Group" transform="translate(263.362205, 89.500000) scale(-1, 1) rotate(-180.000000) translate(-263.362205, -89.500000) translate(105.862205, 34.500000)" fill="#FFFFFF" fill-rule="nonzero"><path d="M301.388791,73.6098194 C295.878092,73.6196017 290.879333,69.1751737 284.661047,64.0003335 C278.954701,59.2591755 267.281149,47.2725892 256.631478,40.4445391 C259.598777,45.1074386 266.752904,55.1832145 267.828958,59.9113293 C268.960445,64.867698 265.327948,66.7915516 260.329189,63.7264289 C254.883705,60.367837 249.689301,44.227031 241.997147,44.227031 C240.595016,44.227031 239.616786,44.9117925 239.629829,46.4769616 C239.662436,51.2050764 246.982862,60.6286985 260.123761,65.813321 C262.161742,66.6285132 262.944326,67.9426031 262.954108,69.0740899 C262.954108,69.4327744 262.895415,71.8261788 258.858583,71.8261788 C245.880723,71.8261788 228.363872,56.6799074 225.908513,45.0683094 C223.381417,42.5249097 218.832645,38.7554609 213.067605,36.2968411 C219.5761,45.5150347 225.178101,52.9267624 228.116054,60.6221769 C231.507253,69.5892913 226.681315,70.7631681 221.724947,68.14151 C216.899009,65.5915887 213.507809,58.5124595 212.073071,55.8158036 C210.67094,53.1419731 209.464456,49.7181658 205.225456,46.3106623 C200.986457,42.9031589 196.584419,43.4737934 199.688671,50.1257619 C202.470107,56.0668828 208.721,62.2982121 214.101269,65.1676887 C215.372969,65.8524502 216.491413,66.2567855 216.449023,67.97195 C216.383807,70.694692 213.233905,72.5826772 208.743826,70.6457805 C202.646188,68.0045577 199.718018,66.2437425 194.549699,66.2437425 C190.447652,66.2437425 188.32163,67.3524039 186.570597,68.0795553 C184.222844,69.0773506 182.494636,68.7317091 181.581621,68.4382399 C180.759907,68.1578138 179.462121,67.3621862 178.376285,66.1720056 C177.515442,65.2263826 176.788291,63.6775174 176.61547,62.6829829 C175.408986,55.4114683 169.043965,42.3683928 164.368022,42.3683928 C162.753942,42.3683928 160.976823,42.8249004 161.43333,46.5421769 C162.183307,52.6267717 169.520037,60.8504308 171.215637,62.4873367 C172.911237,64.1372858 176.10679,65.2589903 176.335044,67.0850208 C176.53069,68.6175822 175.59811,70.3294859 172.58516,70.3294859 C162.695248,70.3294859 149.479352,56.6212135 148.162001,44.3085503 C146.62944,42.8738119 144.783844,41.4716813 142.674127,41.4716813 C138.10905,41.4716813 136.811264,45.7432886 137.137341,49.1344882 C149.150014,59.9732839 171.936267,84.1388421 172.624289,101.339398 C172.787327,105.447967 170.785215,107.502251 167.420102,107.502251 C158.942103,107.502251 147.059861,95.1113293 139.670959,85.5572765 C130.579935,73.7924224 124.984456,59.5852524 123.00843,48.8149328 C116.356461,43.0433719 113.656545,42.6586012 110.760982,42.6586012 C106.737193,42.6586012 105.331802,45.5704678 105.458972,47.8595276 C116.676017,58.0526911 136.175415,82.3388976 136.566707,94.3417879 C136.684094,97.8960259 134.675461,99.5720611 131.078833,99.5720611 C123.43233,99.5720611 112.603316,91.5016582 104.8166,80.8748124 C97.0396665,70.2447059 91.9952571,57.742918 90.5670403,46.4084854 C84.7465679,41.1782121 80.3934414,40.1152015 76.8065956,40.1152015 C74.6381843,40.1152015 73.0469291,41.6412413 72.6654192,42.280352 C77.817434,45.2541732 89.5562019,52.7148124 89.5562019,63.8340343 C89.5562019,69.3577767 85.8291431,71.822918 82.1216489,71.822918 C72.6915053,71.822918 57.8615285,60.071107 57.9593516,43.8520426 C57.9593516,43.565095 58.0050023,42.5672997 58.0571746,42.2053543 C53.7855674,40.7380083 50.8443539,39.2380547 51.5225938,36.1664104 C52.1421399,33.3817138 55.5985549,33.5251876 60.0984159,35.113182 C61.1353404,33.1893284 65.5439,30.0166003 71.7719685,30.0166003 C80.2043168,30.0166003 86.6410746,34.0175637 91.727874,38.3641686 C93.8636776,33.3588884 99.1298194,30.7339694 104.640519,30.7339694 C111.325095,30.7339694 117.944456,35.2664382 123.161686,39.3750069 C123.768189,35.537082 127.671329,29.5600926 134.424382,29.5600926 C140.587235,29.5600926 145.295785,33.1469384 149.016322,37.0272534 C149.994553,33.1143307 153.581399,30.0166003 158.257341,30.0166003 C173.853599,30.0166003 182.598981,52.0920056 184.614136,60.0156739 C184.874998,61.0265123 185.840185,61.2547661 186.505382,61.01673 C189.407466,60.0058916 190.829162,59.5037332 194.494266,59.9211116 C188.559667,55.2582121 183.329393,47.3019361 183.329393,41.4879852 C183.329393,35.6838166 188.36076,32.9871607 192.035646,32.9871607 C195.720315,32.9871607 200.591904,35.367522 203.797239,38.3674294 C202.94944,36.6587865 201.80817,34.0469106 199.98214,32.2045762 C196.623548,31.2817786 186.776026,27.7275405 180.51535,23.9222233 C174.58075,20.3027698 168.841797,14.5507735 168.841797,7.93141269 C168.841797,4.39021769 171.743881,0.235998147 178.568671,0.235998147 C190.040056,0.235998147 198.068069,7.73576656 208.893821,27.4308106 C217.860936,31.1904771 223.241204,34.7023252 226.762835,37.6859287 C228.308439,34.9925336 231.28226,33.7403983 234.262603,33.7403983 C238.664641,33.7403983 241.305864,35.0120982 244.860102,37.5652802 C244.370987,36.3587957 243.588402,34.5458082 242.381918,32.9349884 C235.971246,30.2676795 228.272571,26.7395276 224.330301,24.3591663 C213.814321,18.0202316 211.482872,12.3367114 211.482872,7.85967578 C211.482872,5.12062992 213.830625,0.359907365 220.916276,0.359907365 C236.24189,0.359907365 245.730727,19.4191014 251.913145,30.1959426 C256.445614,32.5991292 262.921501,37.0566003 269.57673,42.1629643 C269.348476,41.3477721 269.240871,40.4999722 269.240871,39.5380454 C269.240871,34.7544975 273.577693,30.2546364 280.68617,30.2546364 C294.730301,30.2546364 299.099731,40.6043168 298.926911,51.775711 C298.861695,55.4277721 298.323668,58.336378 298.274757,59.634164 C298.144326,63.0449282 299.279074,64.8840019 302.383326,64.8840019 C305.513664,64.8840019 307.633164,65.4383326 307.633164,68.112163 C307.633164,71.8131357 304.991941,73.4924317 301.405095,73.4924317 M159.887726,93.3179064 C160.2888,93.3179064 160.4551,92.9592219 160.442057,92.4048912 C160.321408,88.0028532 148.996758,70.215359 138.519907,59.8624178 C144.826234,78.3998888 157.399759,93.3179064 159.877943,93.3179064 M70.3307087,48.6975452 C70.7872163,56.5983881 77.0478925,62.6862436 79.5195553,62.6862436 C80.4325706,62.6862436 80.8564706,62.1645206 80.8564706,61.0786846 C80.8564706,58.2613803 77.0739787,52.3724317 70.3470125,48.6975452 M123.562761,86.7833256 C124.035572,86.7833256 124.23774,86.4148587 124.221436,85.8148773 C124.139917,82.5606299 115.987994,67.6197869 105.524187,57.2668458 C111.021843,74.0598055 119.969393,86.7768041 123.556239,86.7768041 M180.805558,10.2791663 C180.003409,10.2791663 179.599074,10.8008893 179.599074,11.5704308 C179.599074,16.3735433 190.261788,22.0505419 195.854006,24.1015655 C193.441038,20.1951644 184.584789,10.2759055 180.795776,10.2759055 M223.47924,10.015044 C222.696656,10.015044 222.403187,10.4845947 222.403187,11.2541362 C222.403187,15.4931357 232.068106,22.0603242 237.653803,24.1080871 C234.751718,19.086503 226.681315,10.0215655 223.469458,10.0215655 M281.723094,40.5423622 C281.051376,40.5423622 280.027494,40.7054006 280.027494,42.9651135 C280.027494,44.608541 279.24491,46.42805 276.381955,46.42805 C275.990662,46.42805 275.566762,46.3954423 275.084169,46.3139231 C281.214414,51.1724687 286.007744,56.5201297 290.474998,60.1395831 C289.561982,49.0855767 286.92076,40.5423622 281.703529,40.5423622" id="Shape"></path><path d="M276.336304,75.6575822 C276.130875,73.7174247 273.968986,72.8467994 273.779861,71.1120704 C273.672256,70.1012321 274.386364,69.4327744 275.645021,69.4490783 C278.860139,69.481686 287.481612,74.4576193 288.231589,82.1986846 C288.609838,86.1018249 286.170783,89.4897638 281.915479,89.4897638 C277.611264,89.4897638 273.717906,85.4529319 273.355961,82.0617323 C273.007059,78.7455303 276.535211,77.5455674 276.336304,75.6575822 M52.2660491,21.0657897 C49.5041779,21.2092635 48.2096526,24.5059009 48.2096526,28.5003428 C48.2096526,32.8925984 51.0465215,42.407522 52.1714868,46.9106438 C53.3127559,51.4528949 53.8018712,58.7994071 49.6933025,63.0123205 C65.3123854,69.2958221 88.4312367,90.6962483 91.3985364,95.3689301 C94.365836,100.048133 94.9527744,105.999037 90.8442057,108.972858 C86.7682446,111.946679 80.0836684,108.066364 76.138138,102.386105 C65.2797777,86.7278925 58.7256322,79.0846503 51.3236869,72.6478925 C45.552126,67.6263085 42.7478648,67.5447893 39.9762112,67.1600185 C39.9762112,67.1600185 50.6389254,84.6149143 54.6170635,89.8549699 C59.3940899,96.1221677 53.508402,98.4633997 47.8020565,94.5048263 C46.6444836,93.6994164 37.6219361,87.4615655 26.6918388,81.8204354 C7.22504863,71.7772673 2.53932376,67.1469755 2.53932376,61.1210746 C2.53932376,58.4472441 4.39796202,55.0821306 8.31088467,55.0821306 C15.9410838,55.0821306 23.486503,68.718666 27.1809541,72.1131264 C28.6156925,73.4500417 31.951459,76.352126 33.2459843,76.352126 C33.6698842,76.352126 33.9633534,76.0912645 33.9633534,75.2760723 C33.9633534,72.6674572 28.8993793,65.2655118 21.0507087,56.7875127 C9.66410375,44.4944141 0.344826308,39.5380454 0.344826308,31.6795924 C0.344826308,26.5601853 4.19253358,23.7885317 8.35327466,23.7885317 C17.1247429,23.7885317 22.9941269,35.494692 26.5027142,41.2988606 C27.9048448,43.6140065 35.6426494,58.0363872 37.2730338,61.156943 C38.9686336,60.2537101 40.0120797,58.3722464 39.457749,54.5506253 C38.4143029,47.670403 32.2840574,39.3358777 32.2840574,27.7144975 C32.2840574,18.22566 41.0555257,15.248578 44.5771561,15.2420565 C47.8314034,15.2420565 52.1356183,16.4974525 53.2051505,19.7549606 C53.3355813,20.244076 53.1725428,21.0690505 52.3051783,21.1244836 M311.594998,75.0249931 C313.421028,75.0249931 314.594905,73.8511163 314.594905,72.0153034 C314.594905,70.1892728 313.421028,69.015396 311.594998,69.015396 C309.752663,69.015396 308.585308,70.1892728 308.585308,72.0153034 C308.585308,73.8608986 309.746142,75.0412969 311.591737,75.0412969 M311.591737,69.7588513 C312.977564,69.7588513 313.854711,70.6490412 313.854711,72.0413895 C313.854711,73.4337378 312.974303,74.3108847 311.591737,74.3108847 C310.196128,74.3108847 309.318981,73.4304771 309.318981,72.0479111 C309.318981,70.6653451 310.199389,69.7653729 311.581955,69.7653729 M311.777601,73.5804724 C312.243891,73.5804724 312.768874,73.3522186 312.768874,72.6739787 C312.768874,72.2239926 312.475405,71.9566095 312.149328,71.8261788 C312.358018,71.5327096 312.521056,71.1153312 312.768874,71.1153312 L312.941695,71.1153312 C312.974303,71.0827235 313.006911,71.0175081 313.006911,70.8870774 C313.006911,70.6783881 312.853654,70.5283928 312.550403,70.5283928 C311.963465,70.5283928 311.898249,71.2261973 311.506957,71.7348773 L311.158055,71.7348773 L311.158055,70.5936082 C311.092839,70.5479574 310.929801,70.5283928 310.79937,70.5283928 C310.603724,70.5283928 310.440686,70.5610005 310.440686,70.8544697 L310.440686,73.5413432 C310.505901,73.5739509 310.636332,73.586994 310.792849,73.586994 L311.771079,73.586994 L311.777601,73.5804724 Z M311.167837,73.0261417 L311.167837,72.2761649 L311.614562,72.2761649 C311.927596,72.2761649 312.103678,72.4228995 312.103678,72.6674572 C312.103678,72.895711 311.940639,73.0261417 311.679778,73.0261417 L311.171098,73.0261417 L311.167837,73.0261417 Z" id="Shape"></path></g></g></svg> 