<?xml version="1.0" encoding="UTF-8"?> <svg xmlns="http://www.w3.org/2000/svg" width="208" height="68" viewBox="0 0 208 68" fill="none"><path d="M47.2715 31.0454V46.8904H62.1663V45.2211H49.5314V31.0454H47.2715Z" fill="white"></path><path d="M57.8008 36.8235H59.5214L62.5517 31.0967H60.112L57.8008 36.8235Z" fill="white"></path><path d="M99.9166 40.213C99.9166 40.213 103.897 39.1087 103.897 35.5391C103.897 30.7368 98.5555 30.9936 98.5555 30.9936H88.1035V46.9156H90.3634V40.2386H96.9633L101.92 46.8643H104.693L99.9166 40.213ZM90.3634 38.364V32.8169H97.7594C97.7594 32.8169 101.355 32.6885 101.355 35.6418C101.355 38.3896 98.4015 38.3896 98.4015 38.3896H90.3634V38.364Z" fill="white"></path><path d="M107.699 30.9683V46.8903H121.824V45.1697H110.113V39.6226H118.973V37.825H110.113V32.6889H121.824V30.9683H107.699Z" fill="white"></path><path d="M119.563 28.5283H115.531L113.836 30.5057L119.563 28.5283Z" fill="white"></path><path d="M135.665 30.917H132.506L124.365 46.916H127.113L129.168 42.8585H138.926L141.109 46.916H143.831L135.665 30.917ZM130.297 40.7784L134.073 33.0228L137.925 40.7784H130.297Z" fill="white"></path><path d="M145.963 31.0195V46.8388H160.858V45.1696H148.248V31.0195H145.963Z" fill="white"></path><path d="M74.9034 28.0664C68.8428 28.0664 63.9121 32.5862 63.9121 38.1846C63.9121 43.783 68.8171 48.3028 74.9034 48.3028C80.9641 48.3028 85.8948 43.783 85.8948 38.1846C85.8691 32.5862 80.9641 28.0664 74.9034 28.0664ZM74.9291 46.2997C70.3323 46.2997 66.6343 42.6787 66.6343 38.236C66.6343 33.7675 70.358 30.1722 74.9291 30.1722C79.526 30.1722 83.224 33.7932 83.224 38.236C83.224 42.6787 79.5003 46.2997 74.9291 46.2997Z" fill="white"></path></svg> 