<?xml version="1.0" encoding="UTF-8"?> <svg xmlns="http://www.w3.org/2000/svg" viewBox="0 0 50 50"><path d="M25.721 8.852v1.84h-7.36v-1.84a1.84 1.84 0 0 1 1.84-1.84h3.68a1.656 1.656 0 0 1 1.84 1.449 1.7 1.7 0 0 1 0 .391zm-7.36 18.401v-1.84h7.36v1.84a1.656 1.656 0 0 1-1.449 1.84 1.7 1.7 0 0 1-.391 0H20.2a1.84 1.84 0 0 1-1.84-1.84z" fill="#f90"></path><path d="M40.441 38.294v3.68a1.656 1.656 0 0 1-1.449 1.84 1.7 1.7 0 0 1-.391 0H12.84a1.84 1.84 0 0 1-1.84-1.84v-3.68a1.84 1.84 0 0 1 1.84-1.84h20.793a12.161 12.161 0 0 0 1.1-3.68 9.194 9.194 0 0 0 0-3.68 12.513 12.513 0 0 0-7.176-9.753v4.232a1.656 1.656 0 0 1-1.449 1.84 1.7 1.7 0 0 1-.391 0h-7.36a1.841 1.841 0 0 1-1.841-1.839V12.533a1.84 1.84 0 0 1 1.84-1.84h7.36a1.656 1.656 0 0 1 1.84 1.449 1.7 1.7 0 0 1 0 .391v2.76A16.745 16.745 0 0 1 38.6 30.933a17.308 17.308 0 0 1-.92 5.52h.92a1.656 1.656 0 0 1 1.84 1.449 1.7 1.7 0 0 1 0 .391z" fill="#273739"></path></svg> 