<?xml version="1.0" encoding="UTF-8"?> <svg xmlns="http://www.w3.org/2000/svg" xmlns:xlink="http://www.w3.org/1999/xlink" width="527px" height="179px" viewBox="0 0 527 179" version="1.1"><title>microsoft</title><g id="microsoft" stroke="none" stroke-width="1" fill="none" fill-rule="evenodd"><g id="microsoft-ar21" transform="translate(90.041667, 52.000000)" fill="#FFFFFF" fill-rule="nonzero"><path d="M122.666488,43.1084059 L120.606188,48.9459232 L120.434496,48.9459232 C120.091113,47.6296203 119.461577,45.6265506 118.431426,43.222867 L107.385928,15.4660442 L96.5693516,15.4660442 L96.5693516,59.705269 L103.723172,59.705269 L103.723172,32.4062907 L103.665941,26.339851 C103.608711,25.1380092 103.49425,24.2223202 103.437019,23.5355535 L103.608711,23.5355535 C103.952094,25.2524704 104.352708,26.5115427 104.638861,27.3127706 L117.916351,59.5908079 L122.952641,59.5908079 L136.11567,27.0266178 C136.401823,26.2826205 136.687976,24.7946259 136.974129,23.5355535 L137.14582,23.5355535 L136.802437,31.4906017 L136.802437,59.5335773 L144.414102,59.5335773 L144.414102,15.351583 L133.998139,15.351583 L122.666488,43.1084059 Z M151.625153,27.8278457 L159.065126,27.8278457 L159.065126,59.5335773 L151.625153,59.5335773 L151.625153,27.8278457 Z M155.40237,14.435894 C154.143297,14.435894 153.113147,14.8937385 152.254689,15.6949664 C151.39623,16.4961943 150.938386,17.5263444 150.938386,18.7854168 C150.922213,19.9384027 151.401527,21.0429094 152.254689,21.8186366 C153.113147,22.6198645 154.143297,23.0204784 155.40237,23.0204784 C156.661442,23.0204784 157.748823,22.5626339 158.550051,21.8186366 C159.403213,21.0429094 159.882527,19.9384027 159.866354,18.7854168 C159.866354,17.583575 159.408509,16.5534249 158.550051,15.6949664 C157.806053,14.8937385 156.718673,14.435894 155.40237,14.435894 M185.448415,27.5416929 C184.074882,27.25554 182.644118,27.0838484 181.270584,27.0838484 C177.893981,27.0838484 174.803531,27.8278457 172.228155,29.3158403 C169.65278,30.8038349 167.59248,32.8641352 166.276177,35.4395105 C164.902643,38.0721164 164.215876,41.1053362 164.215876,44.5964005 C164.215876,47.6296203 164.902643,50.3194567 166.218946,52.7803709 C167.535249,55.1840545 169.366627,57.1298937 171.827541,58.4461966 C174.173994,59.7624995 176.921061,60.4492663 180.011512,60.4492663 C183.559807,60.4492663 186.593026,59.705269 188.99671,58.3317355 L189.053941,58.2745049 L189.053941,51.4068374 L188.767788,51.6357597 C187.680407,52.4369875 186.421335,53.1237543 185.162262,53.5243682 C183.845959,53.9822127 182.644118,54.211135 181.613967,54.211135 C178.637978,54.211135 176.291525,53.3526765 174.631839,51.464068 C172.914922,49.63269 172.056464,47.1145452 172.056464,43.9668643 C172.056464,40.7047222 172.914922,38.1293469 174.689069,36.2407384 C176.463217,34.3521298 178.80967,33.3792102 181.671198,33.3792102 C184.074882,33.3792102 186.535796,34.1804381 188.767788,35.7828939 L189.053941,36.0118161 L189.053941,28.7435347 L188.99671,28.6863041 C188.02379,28.2856902 186.93641,27.8278457 185.448415,27.5416929 M210.000326,27.3127706 C208.168948,27.3127706 206.452032,27.8850762 204.964037,29.086918 C203.704965,30.1170682 202.846506,31.6050628 202.102509,33.3792102 L202.045278,33.3792102 L202.045278,27.8278457 L194.605305,27.8278457 L194.605305,59.5335773 L202.045278,59.5335773 L202.045278,43.3373281 C202.045278,40.5902611 202.617584,38.3010386 203.876656,36.6413523 C205.135729,34.9244354 206.738184,34.065977 208.684024,34.065977 C209.37079,34.065977 210.057557,34.2376687 210.916015,34.3521298 C211.717243,34.581052 212.289549,34.8099743 212.690163,35.0961271 L212.976316,35.3250494 L212.976316,27.8850762 L212.804624,27.8278457 C212.289549,27.4844623 211.259399,27.3127706 210.000326,27.3127706 M230.259946,27.1410789 C225.051964,27.1410789 220.874133,28.6863041 217.955375,31.7195239 C214.979385,34.7527437 213.548621,38.9305748 213.548621,44.1957865 C213.548621,49.1176149 215.036616,53.1237543 217.898144,56.042513 C220.759672,58.9040411 224.65135,60.3920357 229.515948,60.3920357 C234.609468,60.3920357 238.672838,58.8468105 241.591597,55.7563602 C244.567586,52.6659098 245.99835,48.5453093 245.99835,43.4517892 C245.99835,38.4154997 244.624817,34.4093604 241.820519,31.4906017 C239.130683,28.571843 235.181774,27.1410789 230.259946,27.1410789 M236.211924,51.5212985 C234.838391,53.295446 232.663629,54.1539044 229.973793,54.1539044 C227.283956,54.1539044 225.109195,53.295446 223.56397,51.4068374 C222.018745,49.63269 221.274747,47.0573147 221.274747,43.7951726 C221.274747,40.4185694 222.075975,37.8431941 223.56397,36.0118161 C225.109195,34.1804381 227.226726,33.2647491 229.916562,33.2647491 C232.549168,33.2647491 234.609468,34.1232075 236.097463,35.897355 C237.585458,37.6715024 238.386685,40.2468777 238.386685,43.6234809 C238.272224,47.0573147 237.642688,49.7471511 236.211924,51.5212985 M262.595213,40.990875 C260.24876,40.0179555 258.760766,39.2739582 258.073999,38.644422 C257.501693,38.0721164 257.215541,37.2708885 257.215541,36.2407384 C257.215541,35.3822799 257.558924,34.5238215 258.417382,33.9515159 C259.275841,33.3792102 260.24876,33.0930574 261.679524,33.0930574 C262.938597,33.0930574 264.2549,33.3219797 265.513972,33.665363 C266.773044,34.0087464 267.917656,34.5238215 268.833345,35.2105882 L269.119498,35.4395105 L269.119498,28.4573819 L268.947806,28.4001513 C268.089347,28.0567679 266.944736,27.7133845 265.571203,27.4272317 C264.197669,27.1983095 262.938597,27.0838484 261.908447,27.0838484 C258.360152,27.0838484 255.441393,27.9423068 253.152171,29.8309154 C250.862948,31.6050628 249.775567,34.0087464 249.775567,36.813044 C249.775567,38.3010386 250.00449,39.6173415 250.519565,40.7047222 C251.03464,41.7921029 251.778637,42.822253 252.808787,43.6807115 C253.838937,44.4819394 255.326932,45.3976284 257.387232,46.2560868 C259.104149,47.0000841 260.420452,47.5723897 261.22168,48.0302342 C262.022908,48.4880787 262.537983,49.0031538 262.938597,49.4037677 C263.22475,49.8616122 263.396441,50.4339179 263.396441,51.1779152 C263.396441,53.295446 261.793986,54.3255961 258.531843,54.3255961 C257.272771,54.3255961 255.956468,54.0966739 254.411243,53.5815988 C252.866018,53.0665237 251.435254,52.3225264 250.233412,51.464068 L249.947259,51.2351457 L249.947259,58.5034272 L250.118951,58.5606577 C251.206331,59.0757328 252.522634,59.4191162 254.12509,59.8197301 C255.727546,60.1058829 257.15831,60.3348052 258.417382,60.3348052 C262.25183,60.3348052 265.399511,59.4763467 267.631503,57.5877382 C269.920725,55.7563602 271.122567,53.4099071 271.122567,50.3766873 C271.122567,48.2591565 270.550262,46.3705479 269.291189,44.9397839 C267.631503,43.5662504 265.571203,42.1354863 262.595213,40.990875 M290.75265,27.1410789 C285.544669,27.1410789 281.366838,28.6863041 278.448079,31.7195239 C275.529321,34.7527437 274.041326,38.9305748 274.041326,44.1957865 C274.041326,49.1176149 275.529321,53.1237543 278.390849,56.042513 C281.252377,58.9040411 285.144055,60.3920357 290.008653,60.3920357 C295.102173,60.3920357 299.165543,58.8468105 302.084302,55.7563602 C305.060291,52.6659098 306.491055,48.5453093 306.491055,43.4517892 C306.491055,38.4154997 305.117521,34.4093604 302.313224,31.4906017 C299.623387,28.571843 295.674479,27.1410789 290.75265,27.1410789 M296.647398,51.5212985 C295.273865,53.295446 293.099103,54.1539044 290.409267,54.1539044 C287.6622,54.1539044 285.544669,53.295446 283.999444,51.4068374 C282.454219,49.63269 281.710221,47.0573147 281.710221,43.7951726 C281.710221,40.4185694 282.511449,37.8431941 283.999444,36.0118161 C285.544669,34.1804381 287.6622,33.2647491 290.352036,33.2647491 C292.927412,33.2647491 295.044942,34.1232075 296.532937,35.897355 C298.020932,37.6715024 298.822159,40.2468777 298.822159,43.6234809 C298.822159,47.0573147 298.078162,49.7471511 296.647398,51.5212985 M346.266296,33.9515159 L346.266296,27.8278457 L338.769092,27.8278457 L338.769092,18.4420334 L338.54017,18.499264 L331.44358,20.6167948 L331.271888,20.6740254 L331.271888,27.8278457 L320.054698,27.8278457 L320.054698,23.8217063 C320.054698,21.9903283 320.512543,20.5595642 321.313771,19.6438752 C322.114998,18.7281862 323.31684,18.2703417 324.804835,18.2703417 C325.834985,18.2703417 326.922366,18.499264 328.124207,19.014339 L328.41036,19.1860307 L328.41036,12.7189772 L328.238669,12.6617466 C327.208518,12.3183632 325.834985,12.089441 324.060838,12.089441 C321.828846,12.089441 319.883006,12.604516 318.108859,13.4629745 C316.334712,14.435894 315.018409,15.752197 314.045489,17.5263444 C313.07257,19.2432613 312.557494,21.1891004 312.557494,23.4210924 L312.557494,27.8278457 L307.349513,27.8278457 L307.349513,33.8942853 L312.557494,33.8942853 L312.557494,59.5335773 L320.054698,59.5335773 L320.054698,33.9515159 L331.271888,33.9515159 L331.271888,50.2622262 C331.271888,56.958202 334.419569,60.3348052 340.714931,60.3348052 C341.745081,60.3348052 342.832462,60.1631135 343.862612,59.9914218 C344.949993,59.7624995 345.751221,59.4763467 346.209065,59.2474245 L346.266296,59.1901939 L346.266296,53.0665237 L345.980143,53.295446 C345.522298,53.5815988 345.121685,53.810521 344.434918,53.9822127 C343.862612,54.1539044 343.347537,54.211135 342.946923,54.211135 C341.458929,54.211135 340.428778,53.8677516 339.684781,53.0092932 C338.998014,52.2080653 338.654631,50.8917624 338.654631,48.9459232 L338.654631,33.9515159 L346.266296,33.9515159 Z" id="Shape"></path><polygon id="Path" points="0.650928833 0.586097917 35.7332636 0.586097917 35.7332636 35.6684327 0.650928833 35.6684327"></polygon><polygon id="Path" points="39.3960196 0.586097917 74.4783545 0.586097917 74.4783545 35.6684327 39.3960196 35.6684327"></polygon><polygon id="Path" points="0.650928833 39.3311887 35.7332636 39.3311887 35.7332636 74.4135235 0.650928833 74.4135235"></polygon><polygon id="Path" points="39.3960196 39.3311887 74.4783545 39.3311887 74.4783545 74.4135235 39.3960196 74.4135235"></polygon></g></g></svg> 