<?xml version="1.0" encoding="UTF-8"?> <svg xmlns="http://www.w3.org/2000/svg" width="207" height="68" viewBox="0 0 207 68" fill="none"><path d="M69.2105 36.208H72.4126C73.6706 36.208 74.128 36.6654 74.128 37.6947C74.128 38.7239 73.6706 39.067 72.4126 39.067H69.2105V36.208V36.208ZM64.293 46.7292H69.2105V42.4978H74.4711C77.9019 42.4978 79.1599 40.4393 79.1599 37.809C79.1599 34.7213 77.9019 33.0059 74.3567 33.0059H64.293V46.7292Z" fill="white"></path><path d="M80.7598 33.0059H93.9113V36.3223H85.6773V38.1521H93.3395V41.5829H85.6773V43.4127H93.9113V46.7292H80.7598V33.0059Z" fill="white"></path><path d="M100.888 36.208H103.976C105.234 36.208 105.691 36.6654 105.691 37.6947C105.691 38.7239 105.234 39.067 103.976 39.067H100.774V36.208H100.888ZM95.9707 46.7292H100.888V42.4978H106.149C109.58 42.4978 110.838 40.4393 110.838 37.809C110.838 34.7213 109.58 33.0059 106.034 33.0059H95.9707V46.7292Z" fill="white"></path><path d="M115.528 40.8968C113.126 40.4393 112.097 38.9526 112.097 37.0085C112.097 33.4633 115.185 32.4341 119.302 32.4341C124.791 32.4341 127.078 34.0351 127.307 36.8942H121.589C121.589 36.3223 121.246 35.9793 120.788 35.7505C120.331 35.5218 119.759 35.4075 119.302 35.4075C117.815 35.4075 117.357 35.8649 117.357 36.4367C117.357 36.7798 117.472 37.1229 118.044 37.1229L123.876 38.0378C126.392 38.4952 127.879 39.7532 127.879 42.0404C127.879 45.3569 125.363 46.9579 119.873 46.9579C116.099 46.9579 111.982 46.3861 111.982 42.3835H117.929C117.929 42.8409 118.158 43.184 118.501 43.4127C118.844 43.6414 119.416 43.7558 120.216 43.7558C121.703 43.7558 122.161 43.2984 122.161 42.6122C122.161 42.1547 121.932 41.8117 121.246 41.6973L115.528 40.8968Z" fill="white"></path><path d="M129.479 33.0059H134.282V46.7292H129.479V33.0059Z" fill="white"></path><path d="M152.467 41.3546C152.124 43.1844 151.552 44.6711 150.409 45.586C149.265 46.6152 147.321 47.187 144.347 47.187C141.374 47.187 135.885 46.9583 135.885 39.8679C135.885 32.7776 141.374 32.5488 144.347 32.5488C147.321 32.5488 151.781 33.0063 152.467 38.3812H146.978C146.863 37.352 146.292 35.9797 144.347 35.9797C142.403 35.9797 141.031 37.1233 141.031 39.8679C141.031 42.6126 142.289 43.7562 144.004 43.7562C145.491 43.7562 146.52 43.07 146.863 41.3546H152.467V41.3546Z" fill="white"></path><path d="M158.87 39.8679C158.87 37.1233 160.128 35.9797 162.186 35.9797C164.131 35.9797 165.503 37.1233 165.503 39.8679C165.503 42.6126 164.245 43.7562 162.186 43.7562C160.128 43.7562 158.87 42.6126 158.87 39.8679ZM153.609 39.8679C153.609 46.9583 159.099 47.187 162.072 47.187C165.045 47.187 170.535 46.9583 170.535 39.8679C170.535 32.7776 165.045 32.5488 162.072 32.5488C159.099 32.5488 153.609 32.7776 153.609 39.8679Z" fill="white"></path><path d="M56.9742 33.12C57.2029 26.4871 51.5992 19.0537 43.8227 18.1388V18.0244C51.4849 18.0244 57.3173 25.1148 57.3173 30.7185C57.3173 31.8621 57.2029 32.5482 57.0885 33.12H56.9742ZM56.5167 33.9206C56.0593 34.4924 55.3731 35.1785 54.5726 35.7503C53.2003 27.8594 47.3679 20.8834 43.2509 18.8249L43.1365 18.9393C47.2535 22.3701 52.2854 29.003 54.1152 36.0934C53.2003 36.7796 52.171 37.3514 50.9131 37.9232C47.1391 33.4631 43.4796 24.8861 42.2216 19.3967H42.1073C42.1073 24.6573 45.8812 33.6918 50.4556 38.0376C49.4264 38.495 48.3971 38.7237 47.1391 38.9524C42.9078 37.237 39.7057 31.7477 39.7057 26.0297C39.7057 22.2558 40.8493 19.9685 41.078 19.5111H40.9637C40.7349 19.8542 39.0195 22.1414 39.0195 26.144C39.0195 32.6626 42.2216 37.5801 46.453 39.0668C44.9663 39.1812 43.4796 39.1812 41.8786 38.8381V38.9524C42.336 39.0668 43.8227 39.753 46.2243 39.753C51.5992 39.8673 55.1444 36.5509 56.5167 33.9206Z" fill="white"></path><path d="M45.7667 15.7373C41.6497 15.7373 36.9609 18.5963 36.9609 21.341C36.9609 22.3702 37.8758 23.2851 39.82 23.2851C44.28 23.2851 48.5114 20.1974 48.5114 17.7958C48.5114 16.4235 47.3678 15.7373 45.7667 15.7373ZM47.3678 17.5671C47.3678 19.6256 43.4795 22.0271 40.163 22.0271C38.6763 22.0271 37.9902 21.4553 37.9902 20.5405C37.9902 18.482 41.8785 16.0804 44.9662 16.0804C46.9103 16.0804 47.3678 17.1096 47.3678 17.5671Z" fill="white"></path><path d="M35.3609 22.4843C35.2465 22.713 34.7891 23.6279 34.7891 24.5428C34.7891 26.2582 36.5045 27.7449 39.5922 27.7449C45.6533 27.7449 52.515 23.2848 52.515 19.1678C52.515 17.338 50.7996 16.3088 49.5416 16.0801V16.1944C49.999 16.3088 51.3714 16.995 51.3714 18.596C51.3714 21.9125 45.1959 26.3725 39.1348 26.3725C36.8476 26.3725 35.3609 25.2289 35.3609 23.5135C35.3609 22.9417 35.4752 22.5986 35.3609 22.4843Z" fill="white"></path><path d="M55.1443 19.5112C55.2587 19.6256 56.288 20.4261 56.288 22.0272C56.288 27.4021 47.9396 32.5484 40.6205 32.5484C36.2748 32.5484 34.2163 30.3755 34.3307 28.4314H34.445C34.6738 29.4606 36.0461 31.176 39.9344 31.176C47.3678 31.176 55.6018 25.8011 55.6018 20.9979C55.3731 20.3118 55.1443 19.74 55.1443 19.5112Z" fill="white"></path><path d="M57.8887 24.5435C57.8887 24.6578 58.1174 25.1153 58.1174 25.9158C58.1174 31.8625 49.6547 36.8944 42.3356 36.8944C38.5617 36.8944 36.6176 35.0647 36.1602 34.2641H36.2745C37.3038 35.179 39.3623 35.8652 41.7638 35.8652C48.168 35.8652 57.8887 30.9477 57.8887 24.5435Z" fill="white"></path></svg> 