<?xml version="1.0" encoding="UTF-8"?> <svg xmlns="http://www.w3.org/2000/svg" width="207" height="68" viewBox="0 0 207 68" fill="none"><g clip-path="url(#clip0)"><path d="M75.5634 51.9677L76.8593 51.8531L77.1044 51.5587V39.0758H75.5176V37.9845L79.7244 36.6427H80.9057V38.1661C82.9985 36.9319 83.8166 36.6216 84.885 36.6216C87.3851 36.6216 89.2928 38.9859 89.2928 42.0996C89.2928 45.7386 86.6781 48.17 82.8116 48.17C82.3567 48.17 81.6303 48.1259 80.9021 48.0571V51.5587L81.1983 51.8531L82.6987 51.9677L82.6529 53.1719H75.5634V51.9677ZM80.9057 46.7665C81.1083 46.8007 81.3137 46.816 81.5192 46.8124C83.8624 46.8124 85.1124 45.356 85.1124 42.6285C85.1124 40.31 84.0881 39.0811 82.2015 39.0811C81.7674 39.0875 81.3342 39.1258 80.9057 39.1957V46.7665Z" fill="white"></path><path d="M94.3945 36.6886C94.5484 37.3253 94.6469 37.9742 94.6889 38.628L94.9393 44.1765L98.261 37.8945V37.2351L101.694 36.9619L102.126 45.6011L105.06 41.5319L104.423 37.348C105.037 36.8032 105.469 36.6216 106.174 36.6216C107.286 36.6216 108.037 37.3268 108.037 38.3847C108.037 39.499 107.424 40.8178 105.901 42.9318C105.421 43.5929 104.01 45.356 101.692 48.177H99.0103L98.4814 40.3559L94.2358 48.177H91.3478L91.5753 47.1544L91.2085 38.9172L88.957 38.554V37.6442L93.0721 36.6886H94.3945Z" fill="white"></path><path d="M115.12 37.8486C113.181 38.1448 112.188 39.5764 112.188 42.0536C112.188 44.5308 113.528 46.2145 115.529 46.2145C116.485 46.2145 117.349 45.9201 119.122 45.0562V47.0785C116.963 48.057 115.716 48.3532 113.953 48.3532C112.066 48.3532 110.748 47.8542 109.656 46.7664C109.117 46.223 108.692 45.5767 108.407 44.8659C108.122 44.155 107.982 43.3941 107.997 42.6284C107.997 39.0581 110.679 36.6338 114.612 36.6338C117.227 36.6338 119.02 37.8151 119.02 39.52C119.02 40.6572 118.179 41.4083 116.929 41.4083C116.283 41.4043 115.651 41.2146 115.11 40.8617L115.12 37.8486Z" fill="white"></path><path d="M113.067 27.291H101.945V30.2248H113.067V27.291Z" fill="white"></path><path d="M123.945 7.97803H113.066V10.3018H123.945V7.97803Z" fill="white"></path><path d="M125.962 10.3018H123.945V13.6623H125.962V10.3018Z" fill="white"></path><path d="M123.945 10.3018H113.066V13.6623H123.945V10.3018Z" fill="white"></path><path d="M131.464 13.6621H125.963V21.9734H131.464V13.6621Z" fill="white"></path><path d="M125.962 13.6621H123.945V21.9734H125.962V13.6621Z" fill="white"></path><path d="M119.789 21.9734H123.945V13.6621H113.066V19.223H119.789V21.9734Z" fill="white"></path><path d="M134.395 21.9736H131.463V27.2912H134.395V21.9736Z" fill="white"></path><path d="M131.464 21.9736H125.963V27.2912H131.464V21.9736Z" fill="white"></path><path d="M125.962 21.9736H123.945V27.2912H125.962V21.9736Z" fill="white"></path><path d="M123.945 21.9736H119.789V27.2912H123.945V21.9736Z" fill="white"></path><path d="M119.789 19.2231H113.066V21.9736H119.789V19.2231Z" fill="white"></path><path d="M119.789 21.9736H113.066V27.2912H119.789V21.9736Z" fill="white"></path></g><defs><clipPath id="clip0"><rect width="58.8774" height="45.1939" fill="white" transform="translate(75.5176 7.97803)"></rect></clipPath></defs></svg> 