<?xml version="1.0" encoding="UTF-8"?> <svg xmlns="http://www.w3.org/2000/svg" width="207" height="68" viewBox="0 0 207 68" fill="none"><path d="M126.265 23.7007C126.845 24.0032 127.651 23.6502 128.029 22.9192C128.433 22.1881 128.256 21.331 127.676 21.0033C127.097 20.7008 126.29 21.0537 125.912 21.7848C125.534 22.541 125.685 23.3981 126.265 23.7007ZM70.7038 21.2302C70.7038 21.2302 78.922 22.1377 79.8547 19.2891C79.8547 19.2891 75.4179 20.3226 71.2836 20.121C67.1493 19.9193 58.8807 18.8857 55.4775 22.3898C53.007 25.0872 53.612 27.4568 56.2085 28.5912C56.2085 28.5912 53.3095 20.726 67.9812 21.1545C67.9812 21.1545 67.7795 21.8856 66.3174 23.2217C64.8805 24.5578 63.7461 27.9862 63.015 29.4231C62.2839 30.86 59.6118 40.5908 57.1161 42.5571C57.1161 42.5571 59.8387 43.1117 61.8302 40.8177C63.5444 38.8261 64.3007 34.8179 65.2082 32.3726C66.267 29.4735 67.351 26.4989 68.8887 23.7763C69.2669 23.02 69.8215 21.5579 70.7038 21.2302ZM138.718 27.7593C137.029 28.9694 134.811 31.9945 134.054 34.591L134.029 34.3893C134.029 34.3893 129.088 39.3303 128.735 35.6246C128.382 31.9188 132.542 26.4485 134.206 26.7005C135.895 26.9778 134.13 29.2719 134.13 29.2719L136.071 28.566C138.012 25.9947 134.18 24.2048 130.424 26.9778C127.374 29.2215 125.811 32.3474 125.71 34.8179C124.55 36.6329 122.912 36.9354 122.912 36.9354C120.618 36.8346 126.366 26.3224 126.366 26.3224L123.567 26.5745C123.567 26.5745 117.265 36.5825 120.013 38.2463C122.181 39.532 125.055 37.1119 125.861 36.3556C126.088 37.238 126.592 37.9438 127.323 38.3472C129.718 39.658 132.769 37.0111 133.777 36.0531C133.727 37.0363 134.004 37.8682 134.735 38.3472C137.13 39.9353 140.659 36.0531 140.659 36.0531C140.13 40.2883 143.054 40.1118 143.054 40.1118C142.701 34.9943 144.945 30.3811 145.701 28.6416C146.281 27.3056 146.76 27.4064 146.76 27.4064L146.785 26.2216C142.449 25.5913 140.609 26.398 138.718 27.7593ZM143.407 28.1879C142.953 29.2467 140.231 36.4061 137.231 36.9354C135.113 37.3892 139.802 26.5997 143.508 26.877C143.483 26.877 143.835 27.1291 143.407 28.1879ZM120.013 26.3476C118.601 25.188 115.324 26.7005 114.013 28.566C112.677 30.4315 112.601 30.0786 113.03 27.9358C113.484 25.8182 112.501 25.9947 112.501 25.9947L105.795 27.5072C106.072 32.0953 102.619 37.7421 100.753 37.2127C98.8876 36.6834 100.4 30.86 102.442 28.9189C104.484 25.9947 105.366 26.5241 105.366 26.5241L105.543 26.2468H98.0557C98.0557 26.2468 99.0136 20.9781 104.358 20.4991C106.476 20.3226 109.072 22.2637 106.602 24.4821C106.602 24.4821 109.601 23.5242 109.173 21.3814C108.719 19.2639 104.761 19.4403 104.761 19.4403C96.4675 20.1462 95.4591 26.272 95.4591 26.272L93.2155 27.0787H94.9045C94.5516 27.8097 94.2239 28.566 93.9214 29.3223C93.5433 30.2802 93.0391 31.6919 92.4845 33.2297C91.3501 34.4902 88.2241 37.6665 85.5772 37.238C84.3167 37.0363 84.3671 34.2381 85.7536 33.507C87.5183 32.5995 92.0811 29.8769 91.7786 26.5997C90.4425 23.499 83.1823 27.5072 81.8966 34.2885C80.6866 40.7168 87.7956 38.9774 91.7534 35.0448C90.5434 38.1203 89.1317 41.3218 87.7956 42.6579C87.7956 42.6579 91.1484 43.4646 93.0139 39.2043C94.1735 36.5321 95.4591 31.3138 97.4507 27.0787H101.131L101.03 27.835C98.7363 29.171 97.4255 31.5155 96.9213 34.0364C96.4927 36.2044 97.0221 38.6497 99.7195 38.574C104.913 38.4228 106.854 31.0365 107.912 28.7173C109.072 26.2468 110.837 27.2047 110.484 28.9946C110.131 30.7592 106.602 38.3472 106.602 38.3472L109.349 38.1707C109.702 36.4061 112.097 32.5239 113.156 31.1121C114.215 29.7004 117.391 25.9947 117.215 28.1879C117.038 30.4063 114.29 32.8768 113.862 36.2296C113.408 39.5824 116.257 39.5824 116.257 39.5824C115.45 36.4061 118.652 31.8936 118.652 31.8936C120.088 29.2467 120.366 26.877 120.013 26.3476ZM89.6358 26.9526C90.6946 28.8937 85.4763 32.5239 85.4763 32.5239C85.2242 31.1121 87.7956 26.2468 89.6358 26.9526ZM78.9472 35.675C80.3085 31.8432 85.0478 21.331 85.0478 21.331L82.5269 21.6839C82.5269 21.6839 80.4093 26.272 77.0061 33.4566C76.0985 34.3389 72.9474 37.3892 71.1828 36.8598C69.9475 36.5069 69.9727 34.2129 71.3592 33.507C73.1239 32.5995 77.6867 29.8769 77.3842 26.5997C76.0481 23.499 68.7879 27.5072 67.5022 34.2885C66.3174 40.4899 72.5945 39.0026 76.1742 35.5742C75.5944 39.6328 78.5942 40.1118 78.5942 40.1118C78.5942 40.1118 78.5186 39.2799 78.5438 38.1707C78.5438 37.3136 78.6447 36.5069 78.9472 35.675ZM75.2414 26.9526C76.3002 28.8937 71.0819 32.5239 71.0819 32.5239C70.8298 31.1121 73.4012 26.2468 75.2414 26.9526Z" fill="white"></path><path d="M163.246 48.4557C163.246 48.7078 136.575 48.9095 103.702 48.9095C70.8295 48.8843 44.1582 48.6826 44.1582 48.4557C44.1582 48.2288 70.8295 48.002 103.702 48.002C136.6 48.002 163.246 48.2036 163.246 48.4557Z" fill="white"></path></svg> 