<?xml version="1.0" encoding="UTF-8"?> <svg xmlns="http://www.w3.org/2000/svg" width="1155" height="660" viewBox="0 0 1155 660" fill="none"><g clip-path="url(#clip0)"><rect width="1155" height="660" fill="#EEE7DB"></rect><rect x="767.404" width="387.595" height="330" fill="#242629"></rect><rect x="767.404" width="387.595" height="177.976" fill="#F6CE8B"></rect><rect width="387.595" height="330" fill="#242629"></rect><rect width="191.549" height="330" fill="#D76F32"></rect><rect x="387.596" y="333.5" width="379.809" height="330" fill="#242629"></rect><rect x="767.404" y="330" width="387.595" height="330" fill="#D76F32"></rect><rect x="767.404" y="330" width="196.795" height="330" fill="#F6CE8B"></rect><rect y="330" width="387.595" height="330" fill="#4494A0"></rect><rect y="330" width="387.595" height="161.937" fill="#F6CE8B"></rect><line x1="196.745" y1="173.339" x2="964.931" y2="173.339" stroke="#EEE7DB" stroke-width="20"></line><line x1="196.745" y1="493.926" x2="964.931" y2="493.926" stroke="#242629" stroke-width="20"></line><line x1="186.745" y1="503.926" x2="186.745" y2="177.976" stroke="#242629" stroke-width="20"></line><line x1="967.063" y1="503.926" x2="967.063" y2="177.976" stroke="#242629" stroke-width="20"></line><circle cx="577.5" cy="333.5" r="189.904" fill="#4494A0"></circle><circle cx="964.931" cy="165" r="128.407" fill="#EEE7DB"></circle><circle cx="193.798" cy="165" r="128.407" fill="#EEE7DB"></circle><circle cx="964.931" cy="498.5" r="128.407" fill="#EEE7DB"></circle><circle cx="193.798" cy="495" r="128.407" fill="#EEE7DB"></circle><path d="M235.091 164.999C235.091 187.805 216.603 206.293 193.797 206.293C170.991 206.293 152.503 187.805 152.503 164.999C152.503 142.193 170.991 123.705 193.797 123.705C216.603 123.705 235.091 142.193 235.091 164.999Z" stroke="#242629" stroke-width="30.5627"></path><circle cx="964.93" cy="164.999" r="41.294" stroke="#242629" stroke-width="30.5627"></circle><circle cx="964.93" cy="503.926" r="41.294" stroke="#242629" stroke-width="30.5627"></circle><circle cx="193.798" cy="498.5" r="41.294" stroke="#242629" stroke-width="30.5627"></circle><circle cx="577.5" cy="333.5" r="41.294" stroke="#EEE7DB" stroke-width="30.5627"></circle></g><defs><clipPath id="clip0"><rect width="1155" height="660" fill="white"></rect></clipPath></defs></svg> 